<svg
  viewBox="0 0 30 22"
  version="1.1"
  xmlns="http://www.w3.org/2000/svg"
  xmlns:xlink="http://www.w3.org/1999/xlink"
  xml:space="preserve"
  style="
    fill-rule: evenodd;
    clip-rule: evenodd;
    stroke-linejoin: round;
    stroke-miterlimit: 1.41421;
  "
>
  <path
    d="M17,7l0,-1.032c0,-0.259 0.176,-0.468 0.392,-0.468c0.066,0 0.131,0.02 0.189,0.058l2.716,1.782c0.19,0.125 0.259,0.409 0.154,0.635c-0.035,0.078 -0.089,0.142 -0.154,0.185l-2.716,1.782c-0.19,0.125 -0.428,0.042 -0.532,-0.184c-0.032,-0.07 -0.049,-0.147 -0.049,-0.226l0,-1.032l-5.092,0c-0.61,0 -1.055,0.1 -1.41,0.29c-0.309,0.165 -0.543,0.399 -0.708,0.708c-0.159,0.297 -0.255,0.658 -0.282,1.125c-0.004,0.06 -0.011,0.154 -0.024,0.281c-0.071,0.34 -0.372,0.596 -0.734,0.596c-0.414,0 -0.75,-0.336 -0.75,-0.75l0,-0.25c0,-0.866 0.162,-1.139 0.467,-1.709c0.306,-0.571 0.753,-1.018 1.324,-1.324c0.57,-0.305 1.251,-0.467 2.117,-0.467l5.092,0Zm-4,8l0,1.006c0,0.083 -0.017,0.165 -0.049,0.238c-0.104,0.239 -0.342,0.326 -0.532,0.195l-2.716,-1.881c-0.065,-0.045 -0.119,-0.113 -0.154,-0.195c-0.105,-0.239 -0.036,-0.539 0.154,-0.671l2.716,-1.881c0.058,-0.04 0.123,-0.061 0.189,-0.061c0.216,0 0.392,0.221 0.392,0.494l0,1.256l5.092,0c0.61,0 1.055,-0.1 1.41,-0.29c0.309,-0.165 0.543,-0.399 0.708,-0.708c0.159,-0.297 0.255,-0.658 0.282,-1.125c0.004,-0.06 0.011,-0.154 0.024,-0.281c0.071,-0.34 0.372,-0.596 0.734,-0.596c0.414,0 0.75,0.336 0.75,0.75l0,0.25c0,0.866 -0.162,1.139 -0.467,1.709c-0.306,0.571 -0.753,1.018 -1.324,1.324c-0.57,0.305 -1.251,0.467 -2.117,0.467l-5.092,0Z"
    style="fill-rule: nonzero;"
  ></path>
</svg>